<svg width="1537" height="1121" viewBox="0 0 1537 1121" fill="none" xmlns="http://www.w3.org/2000/svg">
<g filter="url(#filter0_d_7_8)">
<path d="M71 1059H780M780 1059H1489M780 1059V1" stroke="#F8D00E" stroke-width="107"/>
</g>
<path d="M54 1113V557.612M54 557.612V54H673.745C673.745 189.579 560.077 469.46 115.037 548.351M54 557.612C75.0068 554.939 95.3461 551.842 115.037 548.351M54 557.612C72.0914 553.173 92.6437 550.015 115.037 548.351M115.037 548.351C318.56 533.234 673 603 673 1005.5" stroke="#F4062A" stroke-width="107"/>
<path d="M1483 1112.5V557.851M1483 557.851V54H886.66C886.66 189.643 996.035 469.657 1424.27 548.585M1483 557.851C1462.79 555.176 1443.22 552.077 1424.27 548.585M1483 557.851C1465.59 553.41 1445.82 550.249 1424.27 548.585M1424.27 548.585C1228.43 533.461 887 615 887 1005.5" stroke="#276C0A" stroke-width="107"/>
<defs>
<filter id="filter0_d_7_8" x="67" y="1" width="1426" height="1119.5" filterUnits="userSpaceOnUse" color-interpolation-filters="sRGB">
<feFlood flood-opacity="0" result="BackgroundImageFix"/>
<feColorMatrix in="SourceAlpha" type="matrix" values="0 0 0 0 0 0 0 0 0 0 0 0 0 0 0 0 0 0 127 0" result="hardAlpha"/>
<feOffset dy="4"/>
<feGaussianBlur stdDeviation="2"/>
<feComposite in2="hardAlpha" operator="out"/>
<feColorMatrix type="matrix" values="0 0 0 0 0 0 0 0 0 0 0 0 0 0 0 0 0 0 0.25 0"/>
<feBlend mode="normal" in2="BackgroundImageFix" result="effect1_dropShadow_7_8"/>
<feBlend mode="normal" in="SourceGraphic" in2="effect1_dropShadow_7_8" result="shape"/>
</filter>
</defs>
</svg>
